<svg width="1440" height="1024" viewBox="0 0 1440 1024" fill="none" xmlns="http://www.w3.org/2000/svg">
<rect x="1108" width="89" height="346" fill="#C5E9FF"/>
<rect x="1273" width="89" height="397" fill="#679DFF"/>
<path d="M1127.47 325.356C1127.74 325.14 1127.86 325.04 1127.84 325.056C1128.62 324.408 1129.24 323.876 1129.69 323.46C1130.14 323.044 1130.53 322.608 1130.84 322.152C1131.15 321.696 1131.31 321.252 1131.31 320.82C1131.31 320.492 1131.23 320.236 1131.08 320.052C1130.93 319.868 1130.7 319.776 1130.4 319.776C1130.09 319.776 1129.85 319.892 1129.68 320.124C1129.51 320.348 1129.42 320.668 1129.42 321.084H1127.44C1127.46 320.404 1127.6 319.836 1127.88 319.38C1128.16 318.924 1128.52 318.588 1128.97 318.372C1129.42 318.156 1129.93 318.048 1130.48 318.048C1131.43 318.048 1132.15 318.292 1132.63 318.78C1133.12 319.268 1133.36 319.904 1133.36 320.688C1133.36 321.544 1133.07 322.34 1132.48 323.076C1131.9 323.804 1131.16 324.516 1130.25 325.212H1133.49V326.88H1127.47V325.356ZM1140.56 320.028H1136.82V321.684C1136.98 321.508 1137.2 321.364 1137.49 321.252C1137.78 321.14 1138.09 321.084 1138.43 321.084C1139.03 321.084 1139.52 321.22 1139.92 321.492C1140.32 321.764 1140.61 322.116 1140.79 322.548C1140.98 322.98 1141.07 323.448 1141.07 323.952C1141.07 324.888 1140.8 325.632 1140.28 326.184C1139.75 326.728 1139 327 1138.04 327C1137.4 327 1136.85 326.892 1136.38 326.676C1135.9 326.452 1135.54 326.144 1135.28 325.752C1135.03 325.36 1134.89 324.908 1134.86 324.396H1136.87C1136.92 324.644 1137.03 324.852 1137.22 325.02C1137.4 325.18 1137.65 325.26 1137.97 325.26C1138.35 325.26 1138.63 325.14 1138.81 324.9C1139 324.66 1139.09 324.34 1139.09 323.94C1139.09 323.548 1138.99 323.248 1138.8 323.04C1138.61 322.832 1138.33 322.728 1137.96 322.728C1137.69 322.728 1137.46 322.796 1137.29 322.932C1137.11 323.06 1137 323.232 1136.94 323.448H1134.96V318.228H1140.56V320.028ZM1147.96 325.08L1149.41 320.304H1151.6L1149.22 327H1146.69L1144.31 320.304H1146.51L1147.96 325.08ZM1155.51 327.096C1154.85 327.096 1154.26 326.956 1153.73 326.676C1153.21 326.396 1152.8 325.996 1152.49 325.476C1152.2 324.956 1152.05 324.348 1152.05 323.652C1152.05 322.964 1152.2 322.36 1152.51 321.84C1152.81 321.312 1153.23 320.908 1153.75 320.628C1154.28 320.348 1154.87 320.208 1155.53 320.208C1156.19 320.208 1156.78 320.348 1157.31 320.628C1157.83 320.908 1158.25 321.312 1158.55 321.84C1158.86 322.36 1159.01 322.964 1159.01 323.652C1159.01 324.34 1158.85 324.948 1158.54 325.476C1158.24 325.996 1157.82 326.396 1157.28 326.676C1156.75 326.956 1156.16 327.096 1155.51 327.096ZM1155.51 325.32C1155.9 325.32 1156.23 325.176 1156.5 324.888C1156.78 324.6 1156.92 324.188 1156.92 323.652C1156.92 323.116 1156.79 322.704 1156.51 322.416C1156.25 322.128 1155.92 321.984 1155.53 321.984C1155.13 321.984 1154.8 322.128 1154.53 322.416C1154.27 322.696 1154.14 323.108 1154.14 323.652C1154.14 324.188 1154.27 324.6 1154.52 324.888C1154.79 325.176 1155.11 325.32 1155.51 325.32ZM1163.83 325.26V327H1162.79C1162.04 327 1161.46 326.82 1161.05 326.46C1160.63 326.092 1160.42 325.496 1160.42 324.672V322.008H1159.61V320.304H1160.42V318.672H1162.48V320.304H1163.82V322.008H1162.48V324.696C1162.48 324.896 1162.52 325.04 1162.62 325.128C1162.72 325.216 1162.88 325.26 1163.1 325.26H1163.83ZM1171.29 323.544C1171.29 323.736 1171.27 323.936 1171.25 324.144H1166.61C1166.64 324.56 1166.77 324.88 1167 325.104C1167.24 325.32 1167.53 325.428 1167.88 325.428C1168.39 325.428 1168.75 325.212 1168.95 324.78H1171.13C1171.02 325.22 1170.81 325.616 1170.52 325.968C1170.23 326.32 1169.87 326.596 1169.43 326.796C1168.99 326.996 1168.49 327.096 1167.95 327.096C1167.29 327.096 1166.71 326.956 1166.2 326.676C1165.69 326.396 1165.29 325.996 1165 325.476C1164.71 324.956 1164.57 324.348 1164.57 323.652C1164.57 322.956 1164.71 322.348 1164.99 321.828C1165.27 321.308 1165.67 320.908 1166.19 320.628C1166.7 320.348 1167.29 320.208 1167.95 320.208C1168.6 320.208 1169.17 320.344 1169.68 320.616C1170.18 320.888 1170.57 321.276 1170.85 321.78C1171.14 322.284 1171.29 322.872 1171.29 323.544ZM1169.19 323.004C1169.19 322.652 1169.07 322.372 1168.83 322.164C1168.59 321.956 1168.29 321.852 1167.93 321.852C1167.58 321.852 1167.29 321.952 1167.05 322.152C1166.82 322.352 1166.67 322.636 1166.62 323.004H1169.19ZM1175.09 327.096C1174.51 327.096 1173.99 326.996 1173.53 326.796C1173.08 326.596 1172.72 326.324 1172.45 325.98C1172.19 325.628 1172.04 325.236 1172.01 324.804H1174.04C1174.06 325.036 1174.17 325.224 1174.36 325.368C1174.55 325.512 1174.79 325.584 1175.07 325.584C1175.33 325.584 1175.52 325.536 1175.66 325.44C1175.8 325.336 1175.87 325.204 1175.87 325.044C1175.87 324.852 1175.77 324.712 1175.57 324.624C1175.37 324.528 1175.05 324.424 1174.6 324.312C1174.12 324.2 1173.72 324.084 1173.4 323.964C1173.08 323.836 1172.81 323.64 1172.57 323.376C1172.34 323.104 1172.23 322.74 1172.23 322.284C1172.23 321.9 1172.33 321.552 1172.54 321.24C1172.75 320.92 1173.07 320.668 1173.47 320.484C1173.89 320.3 1174.38 320.208 1174.95 320.208C1175.79 320.208 1176.45 320.416 1176.93 320.832C1177.42 321.248 1177.7 321.8 1177.77 322.488H1175.87C1175.84 322.256 1175.74 322.072 1175.56 321.936C1175.39 321.8 1175.17 321.732 1174.89 321.732C1174.65 321.732 1174.47 321.78 1174.34 321.876C1174.21 321.964 1174.15 322.088 1174.15 322.248C1174.15 322.44 1174.25 322.584 1174.45 322.68C1174.65 322.776 1174.97 322.872 1175.41 322.968C1175.9 323.096 1176.31 323.224 1176.62 323.352C1176.93 323.472 1177.2 323.672 1177.43 323.952C1177.67 324.224 1177.8 324.592 1177.81 325.056C1177.81 325.448 1177.69 325.8 1177.47 326.112C1177.25 326.416 1176.94 326.656 1176.52 326.832C1176.11 327.008 1175.64 327.096 1175.09 327.096Z" fill="black"/>
<path d="M1293.47 377.356C1293.74 377.14 1293.86 377.04 1293.84 377.056C1294.62 376.408 1295.24 375.876 1295.69 375.46C1296.14 375.044 1296.53 374.608 1296.84 374.152C1297.15 373.696 1297.31 373.252 1297.31 372.82C1297.31 372.492 1297.23 372.236 1297.08 372.052C1296.93 371.868 1296.7 371.776 1296.4 371.776C1296.09 371.776 1295.85 371.892 1295.68 372.124C1295.51 372.348 1295.42 372.668 1295.42 373.084H1293.44C1293.46 372.404 1293.6 371.836 1293.88 371.38C1294.16 370.924 1294.52 370.588 1294.97 370.372C1295.42 370.156 1295.93 370.048 1296.48 370.048C1297.43 370.048 1298.15 370.292 1298.63 370.78C1299.12 371.268 1299.36 371.904 1299.36 372.688C1299.36 373.544 1299.07 374.34 1298.48 375.076C1297.9 375.804 1297.16 376.516 1296.25 377.212H1299.49V378.88H1293.47V377.356ZM1305.99 371.776L1302.98 379H1300.88L1303.92 372.004H1300.19V370.252H1305.99V371.776ZM1312.58 377.08L1314.03 372.304H1316.21L1313.84 379H1311.3L1308.93 372.304H1311.12L1312.58 377.08ZM1320.12 379.096C1319.47 379.096 1318.88 378.956 1318.35 378.676C1317.83 378.396 1317.42 377.996 1317.11 377.476C1316.82 376.956 1316.67 376.348 1316.67 375.652C1316.67 374.964 1316.82 374.36 1317.12 373.84C1317.43 373.312 1317.84 372.908 1318.37 372.628C1318.9 372.348 1319.49 372.208 1320.15 372.208C1320.8 372.208 1321.4 372.348 1321.92 372.628C1322.45 372.908 1322.87 373.312 1323.17 373.84C1323.48 374.36 1323.63 374.964 1323.63 375.652C1323.63 376.34 1323.47 376.948 1323.16 377.476C1322.86 377.996 1322.44 378.396 1321.9 378.676C1321.37 378.956 1320.78 379.096 1320.12 379.096ZM1320.12 377.32C1320.52 377.32 1320.85 377.176 1321.12 376.888C1321.4 376.6 1321.54 376.188 1321.54 375.652C1321.54 375.116 1321.4 374.704 1321.13 374.416C1320.87 374.128 1320.54 373.984 1320.15 373.984C1319.75 373.984 1319.42 374.128 1319.15 374.416C1318.89 374.696 1318.76 375.108 1318.76 375.652C1318.76 376.188 1318.88 376.6 1319.14 376.888C1319.4 377.176 1319.73 377.32 1320.12 377.32ZM1328.45 377.26V379H1327.4C1326.66 379 1326.08 378.82 1325.66 378.46C1325.25 378.092 1325.04 377.496 1325.04 376.672V374.008H1324.22V372.304H1325.04V370.672H1327.09V372.304H1328.44V374.008H1327.09V376.696C1327.09 376.896 1327.14 377.04 1327.24 377.128C1327.33 377.216 1327.49 377.26 1327.72 377.26H1328.45ZM1335.9 375.544C1335.9 375.736 1335.89 375.936 1335.87 376.144H1331.22C1331.26 376.56 1331.39 376.88 1331.62 377.104C1331.86 377.32 1332.15 377.428 1332.5 377.428C1333.01 377.428 1333.36 377.212 1333.56 376.78H1335.75C1335.64 377.22 1335.43 377.616 1335.14 377.968C1334.85 378.32 1334.48 378.596 1334.04 378.796C1333.6 378.996 1333.11 379.096 1332.57 379.096C1331.91 379.096 1331.33 378.956 1330.82 378.676C1330.3 378.396 1329.9 377.996 1329.62 377.476C1329.33 376.956 1329.18 376.348 1329.18 375.652C1329.18 374.956 1329.32 374.348 1329.6 373.828C1329.89 373.308 1330.29 372.908 1330.8 372.628C1331.32 372.348 1331.9 372.208 1332.57 372.208C1333.22 372.208 1333.79 372.344 1334.3 372.616C1334.8 372.888 1335.19 373.276 1335.47 373.78C1335.76 374.284 1335.9 374.872 1335.9 375.544ZM1333.8 375.004C1333.8 374.652 1333.68 374.372 1333.44 374.164C1333.2 373.956 1332.9 373.852 1332.54 373.852C1332.2 373.852 1331.91 373.952 1331.67 374.152C1331.44 374.352 1331.29 374.636 1331.24 375.004H1333.8ZM1339.71 379.096C1339.13 379.096 1338.61 378.996 1338.15 378.796C1337.69 378.596 1337.33 378.324 1337.07 377.98C1336.81 377.628 1336.66 377.236 1336.63 376.804H1338.65C1338.68 377.036 1338.79 377.224 1338.98 377.368C1339.17 377.512 1339.41 377.584 1339.69 377.584C1339.94 377.584 1340.14 377.536 1340.27 377.44C1340.42 377.336 1340.49 377.204 1340.49 377.044C1340.49 376.852 1340.39 376.712 1340.19 376.624C1339.99 376.528 1339.67 376.424 1339.22 376.312C1338.74 376.2 1338.34 376.084 1338.02 375.964C1337.7 375.836 1337.42 375.64 1337.19 375.376C1336.96 375.104 1336.84 374.74 1336.84 374.284C1336.84 373.9 1336.95 373.552 1337.15 373.24C1337.37 372.92 1337.68 372.668 1338.09 372.484C1338.51 372.3 1339 372.208 1339.57 372.208C1340.41 372.208 1341.07 372.416 1341.55 372.832C1342.03 373.248 1342.31 373.8 1342.39 374.488H1340.49C1340.46 374.256 1340.35 374.072 1340.18 373.936C1340.01 373.8 1339.79 373.732 1339.51 373.732C1339.27 373.732 1339.08 373.78 1338.95 373.876C1338.83 373.964 1338.76 374.088 1338.76 374.248C1338.76 374.44 1338.86 374.584 1339.06 374.68C1339.27 374.776 1339.59 374.872 1340.02 374.968C1340.52 375.096 1340.92 375.224 1341.23 375.352C1341.55 375.472 1341.82 375.672 1342.05 375.952C1342.29 376.224 1342.41 376.592 1342.42 377.056C1342.42 377.448 1342.31 377.8 1342.09 378.112C1341.87 378.416 1341.55 378.656 1341.14 378.832C1340.73 379.008 1340.25 379.096 1339.71 379.096Z" fill="black"/>
</svg>
