<svg width="307" height="100" viewBox="0 0 307 100" fill="none" xmlns="http://www.w3.org/2000/svg">
<g clip-path="url(#clip0_1_9)">
<path d="M92 16H24V84H92V16Z" fill="#3B404F"/>
<path d="M81.12 69.72H34.88V63.6H81.12V69.72Z" fill="#679DFF"/>
<path d="M65.48 53.4H34.88V47.28H65.48V53.4Z" fill="#C5E9FF"/>
<path d="M75.68 37.08H34.88V30.96H75.68V37.08Z" fill="#ACCDFF"/>
</g>
<path d="M124.91 46.72C124.91 47.94 124.63 49.06 124.07 50.08C123.51 51.08 122.65 51.89 121.49 52.51C120.33 53.13 118.89 53.44 117.17 53.44H113.99V61H108.86V39.94H117.17C118.85 39.94 120.27 40.23 121.43 40.81C122.59 41.39 123.46 42.19 124.04 43.21C124.62 44.23 124.91 45.4 124.91 46.72ZM116.78 49.36C117.76 49.36 118.49 49.13 118.97 48.67C119.45 48.21 119.69 47.56 119.69 46.72C119.69 45.88 119.45 45.23 118.97 44.77C118.49 44.31 117.76 44.08 116.78 44.08H113.99V49.36H116.78ZM137.541 61.21C135.561 61.21 133.741 60.75 132.081 59.83C130.441 58.91 129.131 57.63 128.151 55.99C127.191 54.33 126.711 52.47 126.711 50.41C126.711 48.35 127.191 46.5 128.151 44.86C129.131 43.22 130.441 41.94 132.081 41.02C133.741 40.1 135.561 39.64 137.541 39.64C139.521 39.64 141.331 40.1 142.971 41.02C144.631 41.94 145.931 43.22 146.871 44.86C147.831 46.5 148.311 48.35 148.311 50.41C148.311 52.47 147.831 54.33 146.871 55.99C145.911 57.63 144.611 58.91 142.971 59.83C141.331 60.75 139.521 61.21 137.541 61.21ZM137.541 56.53C139.221 56.53 140.561 55.97 141.561 54.85C142.581 53.73 143.091 52.25 143.091 50.41C143.091 48.55 142.581 47.07 141.561 45.97C140.561 44.85 139.221 44.29 137.541 44.29C135.841 44.29 134.481 44.84 133.461 45.94C132.461 47.04 131.961 48.53 131.961 50.41C131.961 52.27 132.461 53.76 133.461 54.88C134.481 55.98 135.841 56.53 137.541 56.53ZM156.295 57.04H163.015V61H151.165V39.94H156.295V57.04ZM170.592 57.04H177.312V61H165.462V39.94H170.592V57.04ZM184.888 39.94V61H179.758V39.94H184.888ZM217.586 39.94L212.096 61H205.886L202.526 47.14L199.046 61H192.836L187.496 39.94H192.986L196.016 55.27L199.766 39.94H205.406L209.006 55.27L212.066 39.94H217.586ZM238.399 39.94V61H233.269V52.33H225.289V61H220.159V39.94H225.289V48.19H233.269V39.94H238.399ZM247.232 39.94V61H242.102V39.94H247.232ZM261.69 61L257.31 53.05H256.08V61H250.95V39.94H259.56C261.22 39.94 262.63 40.23 263.79 40.81C264.97 41.39 265.85 42.19 266.43 43.21C267.01 44.21 267.3 45.33 267.3 46.57C267.3 47.97 266.9 49.22 266.1 50.32C265.32 51.42 264.16 52.2 262.62 52.66L267.48 61H261.69ZM256.08 49.42H259.26C260.2 49.42 260.9 49.19 261.36 48.73C261.84 48.27 262.08 47.62 262.08 46.78C262.08 45.98 261.84 45.35 261.36 44.89C260.9 44.43 260.2 44.2 259.26 44.2H256.08V49.42ZM275.65 57.04H282.37V61H270.52V39.94H275.65V57.04Z" fill="white"/>
<defs>
<clipPath id="clip0_1_9">
<rect width="68" height="68" fill="white" transform="translate(24 16)"/>
</clipPath>
</defs>
</svg>
